
<global>
amp_veltrack=0
ampeg_release=0.50
</global>

<group>
group_label=Group_0-45
lpc_hicc1=42
lpc_locc1=0

<region>
hikey=G#2
hivel=127
lokey=G2
lovel=1
lpc=jSscQwMVvcMxYJNDuBYDw0oi00Jg5BzCTP9iQQcYO8JSdQ5CwZXnwUrgy0Ga0YLA6QV8vnLDAkE21aLBMEVVQQVFhMHGA25BbVVlwMu3I0GNJ0HBbXLjQH1UG8GZhLlA
lpc_rms=-24.38
pitch_keycenter=G#2
sample=Contrabassoon_trill_wholetone_PP_G#3.opus
</region>

<region>
hikey=G#1
hivel=127
lokey=G1
lovel=1
lpc=ZimcQhlIOMOg7R5DCnLCwnOagUJrR8LBi+6AQXq4vsFQSqZB0MKVwA68usBD4aQ/nsifwH0CC0GzXxDARp0TwCvcqkD4+su/xzelwO5qLEDTl3bAscWaQBnovDyZhD2/
lpc_rms=-25.31
pitch_keycenter=G#1
sample=Contrabassoon_trill_wholetone_PP_G#2.opus
</region>

<region>
hikey=F#2
hivel=127
lokey=F2
lovel=1
lpc=yLogQ4HuusNHaoZDaufqwi8I6UJpLVjCXj0GQuJehcJyABhC0VHYvOFMasELV4tBfCGywH0slsD0Jt9A5BaPP7KjiMFpmGdBAhwzwVmkWUHeriLBBh1FQVKwIcGzohtA
lpc_rms=-23.36
pitch_keycenter=F#2
sample=Contrabassoon_trill_wholetone_PP_F#3.opus
</region>

<region>
hikey=F#1
hivel=127
lokey=F1
lovel=1
lpc=3ATJQt7ee8NE/VZDhVXUwnj9mEJt1+vBhpnHP7AQccHPmbxAjFW6QOn/J8AmPOQ/glcdwHNx0kAYWeHAOWiov+Em2z8ZDua/dgPZQCtBm8DspuY/pO4JQFCjrMAVrhlA
lpc_rms=-25.88
pitch_keycenter=F#1
sample=Contrabassoon_trill_wholetone_PP_F#2.opus
</region>

<region>
hikey=E2
hivel=127
lokey=D#2
lovel=1
lpc=YCV5Qezn68Ht1MZBwfCYwZQqK0GgtNbApLK0QK9/TsDvWw1ADmrHvo8rqr6z5XY/x9J2vofChj64qlE/1UO4vyBX+D90+4i/qVx9Plt5GsATayVAHtIwwLbCjD+qNys/
lpc_rms=-23.57
pitch_keycenter=E2
sample=Contrabassoon_trill_wholetone_PP_E3.opus
</region>

<region>
hikey=E1
hivel=127
lokey=D#1
lovel=1
lpc=jo9GQre24MJWEdxCJaatwnQhV0KkiuvBkm3YQWIXzsEd9MJBRfs5wcVEd0CnCk/AA/KqQMk6osBv8ntANvMhwZ65QUFICdnAOgoUwK1FS0G+DIHBgMgkQbFIosAoQvk/
lpc_rms=-23.49
pitch_keycenter=E1
sample=Contrabassoon_trill_wholetone_PP_E2.opus
</region>

<region>
hikey=D#4
hivel=127
lokey=C#3
lovel=1
lpc=PQqDQdlJ8sHsetVBRCCswassLkEo46jAmY2RQK+xjcBTtttAe6vpwBCnvECTwJ/AbgiOQORPKcBe++g/ZsWMv4uukj9S+hlA3ed/wD3sEkAkyDPANlCNPzRLmr8ARtY/
lpc_rms=-28.35
pitch_keycenter=D3
sample=Contrabassoon_trill_wholetone_PP_D4.opus
</region>

<region>
hikey=D2
hivel=127
lokey=C#2
lovel=1
lpc=7gTCQZjjP8L43SJCY0Powbr3SEGbO3jA95mTQKTMWcCnhKxAAMzXwFob20DvqqXAIo0XQKNgRUDCiqzAMqSwQBbLS8B3CopA3w3fwH/SRUAaDxDA9RdNv+CTxD9apIo/
lpc_rms=-25.20
pitch_keycenter=D2
sample=Contrabassoon_trill_wholetone_PP_D3.opus
</region>

<region>
hikey=D1
hivel=127
lokey=C#1
lovel=1
lpc=55eUQk3rNsMx7DtDNhsQw38GsEKVlOTBwyo6QYQDNsFTBDxB1bBnwT5f7UAs4wBB0VoxwdzpEEEd4oDAq44TQFre3sASy5lAJu6cwL18TkBs4B8/YY4YQGPC3MBekYVA
lpc_rms=-25.29
pitch_keycenter=D1
sample=Contrabassoon_trill_wholetone_PP_D2.opus
</region>

<region>
hikey=C3
hivel=127
lokey=B2
lovel=1
lpc=M8J+QStv38GvAaBBE05+wbQvHEHtFuvAJejjQDSGzL/kyYS+WwHMPxfVpb85tNM/HQE1wDmVQUA3tdi/7DCUPksPij/kzbu/7aEdP3H/PsDUc3lAOU0cwE0wIz/kdOw+
lpc_rms=-29.40
pitch_keycenter=C3
sample=Contrabassoon_trill_wholetone_PP_C4.opus
</region>

<region>
hikey=C2
hivel=127
lokey=B1
lovel=1
lpc=DewNQtxkh8JMjTZCGC8AwkTBw0HtsVHBUGMvQbOqm78ijtK/6PgRPv5PNb/rNBO/YeKjP0+vB8ClPwpBjmYowWeOw0DTBInAhWmNQJ2/t8ARfUNAk6Okv6nGG7/XTfU/
lpc_rms=-25.31
pitch_keycenter=C2
sample=Contrabassoon_trill_wholetone_PP_C3.opus
</region>

<region>
hivel=127
key=C1
lovel=1
lpc=+gWFQmyoFcNRyRRDnYIEw32920I+OpfC+rdHQiTS/8FQ39NBSi7ZweToDEK58QPCwGXpQbvI78EvA8xB9DZTwdPntj97H9NAc6tewasofUE47JDBVYp+QVXkCsE/mkdA
lpc_rms=-22.97
sample=Contrabassoon_trill_wholetone_PP_C2.opus
</region>

<region>
hikey=A#2
hivel=127
lokey=A2
lovel=1
lpc=qs+zQW53NcLAwSZC4CsGwpXXrEFn6j7BBljmQFZlw8CGl6VAHcSXv1LXuT7eCfS+AhS+vdCUxr4hRklA9wwcwC48gT8sOws/HEsLwPVZI0AyrRHAau0bQDpJccA+rgRA
lpc_rms=-25.68
pitch_keycenter=A#2
sample=Contrabassoon_trill_wholetone_PP_A#3.opus
</region>

<region>
hikey=A#1
hivel=127
lokey=A1
lovel=1
lpc=Am/0QWrPhMK2S3tC80ZLwqt8C0KPDJPBwcJAQd5uGsHEfNpA+wskwA8wfUAMW3PAWnKsPw2sxL/KeHRASOVQwF4a6T8Ss449NXsrwL/BXkAS4JjAyXrGQPmTC8HDP6tA
lpc_rms=-25.35
pitch_keycenter=A#1
sample=Contrabassoon_trill_wholetone_PP_A#2.opus
</region>
</group>

<group>
group_label=Group_46-90
lpc_hicc1=84
lpc_locc1=43

<region>
hikey=G#2
hivel=127
lokey=G2
lovel=1
lpc=V4ntQl5pg8PxiS1DQ7CRwk+/kUKNRrvBhG53QWzNEsLM3alBVzoNwQ3KQD88kPFAsF2NwGshRsC3ZClA3LjSv+PlJz89Zp8/dQ7nPx7WJkCP/dHA3tOhwGU4+ECJmXC/
lpc_rms=-21.63
pitch_keycenter=G#2
sample=Contrabassoon_trill_wholetone_MF_G#3.opus
</region>

<region>
hikey=G#1
hivel=127
lokey=G1
lovel=1
lpc=/CvZQncxecMf9UFDa835wsgj9ULWgV3ChJj0QQCHV8K/Pz9C9+j6wXNgfEEEleDAeO+eQFY5Hb9hbk7A9w7LQHJcF8Er0RBBAdoIwf6oN0EM4EnBis8IQQK38MDnsJdA
lpc_rms=-21.31
pitch_keycenter=G#1
sample=Contrabassoon_trill_wholetone_MF_G#2.opus
</region>

<region>
hikey=F#2
hivel=127
lokey=F2
lovel=1
lpc=ySMNQ/7Pn8OzDVdDa9KpwsnenUKIrc/A6BzswMdT68Ev7nlBzOHPwIIYyz/su/U/LhWeQLZSHMCZRFLA0ALVvowNDL8lBV6/gNLKQDKqYD8nxuPAAM8nQJdP4D+2jKi/
lpc_rms=-20.62
pitch_keycenter=F#2
sample=Contrabassoon_trill_wholetone_MF_F#3.opus
</region>

<region>
hikey=F#1
hivel=127
lokey=F1
lovel=1
lpc=gbXHQlTBUsOdvfVCPMYSwtKbE0LAJhpBg9mZwZxbHMGYX+BAp5IYQPpVQsDhdBVAzDfUP+Keo7+Osc0+rYMJwLCUd8ArEEZADV86QCRGyr8d5P29GnjbvSvPJT/6ivm+
lpc_rms=-22.06
pitch_keycenter=F#1
sample=Contrabassoon_trill_wholetone_MF_F#2.opus
</region>

<region>
hikey=E2
hivel=127
lokey=D#2
lovel=1
lpc=McuPQRdBCcK3luhBQs2zwXHvUEHwaxfB0tkdQSt2+cAdxeJAni6SwHGkX0DEmiLAVq+0P4hA0T49rd28E/M9v6Vyhz6/n20//3Tzv+VupT8Q4UO/vOC2vmR3xT3gru8+
lpc_rms=-20.00
pitch_keycenter=E2
sample=Contrabassoon_trill_wholetone_MF_E3.opus
</region>

<region>
hikey=E1
hivel=127
lokey=D#1
lovel=1
lpc=kcWXQtj6OcPeHjhD6VIKw3JExkK02lHCRzT+QWHPu8FbB5NBY20cwQAfDMD8bDVBPcZtwSqhAkFPbIs/DihfPrwQgsDlAIa/HicQPwFf9ECm2/XAD4nZPx1Inr6zaBc/
lpc_rms=-20.27
pitch_keycenter=E1
sample=Contrabassoon_trill_wholetone_MF_E2.opus
</region>

<region>
hikey=D#4
hivel=127
lokey=C#3
lovel=1
lpc=SbmqQYxVJMJkdwZCAW7KwVpoTkEkcpjAMmCGQCN5mr9dzcM/UyQHv4FrCMDVLEBARoOHv8d/8L6fdC5AVoQFwKrLYr/c7bhAUzj5wDuTYUAjmlrAmW8AQLnsi7/78uQ/
lpc_rms=-24.38
pitch_keycenter=D3
sample=Contrabassoon_trill_wholetone_MF_D4.opus
</region>

<region>
hikey=D2
hivel=127
lokey=C#2
lovel=1
lpc=Mj7kQSllaMIv2DhCsmHZwVgRBEFZn1u/oMT7QDOBAcGudgtB2mrhwJSwAUC8W2g+5Aa9vz3diUAR37nAKwnrQB9Z1cAtyNtAQX4EwWTXpkDnmW3ASWwyvxBWVkD8z9++
lpc_rms=-21.14
pitch_keycenter=D2
sample=Contrabassoon_trill_wholetone_MF_D3.opus
</region>

<region>
hikey=D1
hivel=127
lokey=C#1
lovel=1
lpc=43i0Qj+8ZsMvoHFDyQY+w8pbCkP1fX7C9u2qQVZnOsHlbu1AogAHwPhuIsFIUbZBUUuSwajfFkEEExHA8d8Zv33pNsBoE58/R1bRwOrpEEHLDhzADOWkQMurIMHzl59A
lpc_rms=-23.10
pitch_keycenter=D1
sample=Contrabassoon_trill_wholetone_MF_D2.opus
</region>

<region>
hikey=C3
hivel=127
lokey=B2
lovel=1
lpc=PoS/QRMDN8IEiAtCEQbOwZfwdkHi6TvBAXuKQRKSYsGWoTBBpu/WwKLWDEC6HJY/LvEYwCchV0BlOiDAfKvGP2fyj7/7ubO/UPYVQO/2N8BRCHM/rqfWPyaRasBysChA
lpc_rms=-22.99
pitch_keycenter=C3
sample=Contrabassoon_trill_wholetone_MF_C4.opus
</region>

<region>
hikey=C2
hivel=127
lokey=B1
lovel=1
lpc=sEbDQQmjNMIepAVC8eTFwXY9S0FrLBfBUYNnQUL3GsG6jxtBfgy2wNs+9j9Xopa/wYP0PKtam7+NeFdAh/9jwErBSkDXVF/A3Iz6PzFkZMCaXmRAuuWmv2BqUD+MkAe9
lpc_rms=-22.06
pitch_keycenter=C2
sample=Contrabassoon_trill_wholetone_MF_C3.opus
</region>

<region>
hivel=127
key=C1
lovel=1
lpc=c06WQr+zJcOSgxRD78Hzwvl20kIY7pTC1MxyQsjBSMI/5R9CaNMXwtLrLUL9wgPCa83PQQVV08Htk4xBy2BSwY9aU0HJYAfBZXgqQNkmasA6dIw+NFpJQEGTT7+VJqI+
lpc_rms=-20.29
sample=Contrabassoon_trill_wholetone_MF_C2.opus
</region>

<region>
hikey=A#2
hivel=127
lokey=A2
lovel=1
lpc=gvIRQuR1n8JJM5dCXBt5wsKtNEK5mdDBaXyhQQoEncFLB45ByqUywfI8BEHJKrHAhT04Pzi4CL/gzVZA63f+v7v/vT1nvMU/Klp9wIGxlEDYupfAD7nHQIZK/cAxSYNA
lpc_rms=-21.79
pitch_keycenter=A#2
sample=Contrabassoon_trill_wholetone_MF_A#3.opus
</region>

<region>
hikey=A#1
hivel=127
lokey=A1
lovel=1
lpc=z7O1QR5pPcJoojBCqXYRwtZ2w0GR3VzB9i4bQYYZBMEvquVAZHn9v8GYkD6Eg1G+CG3Iv9Y1C0D0sIs/ep/Rv/DmOj81nNO+A0O+v2vaBUCUGgvAJiY1QIYqosDn31lA
lpc_rms=-24.58
pitch_keycenter=A#1
sample=Contrabassoon_trill_wholetone_MF_A#2.opus
</region>
</group>

<group>
group_label=Group_91-127
lpc_hicc1=127
lpc_locc1=85

<region>
hikey=G#2
hivel=127
lokey=G2
lovel=1
lpc=Xt6oQv1rOMOqZvVCWel2wu/Ie0L0I5zBhnttQcYf3cGEJHpBQU2MwWiwREEY1IDAHGkEQb9tIMGCO8xArZypwM3hgD86Tc8/NlapQPd8Xz/g+dzAPTavv9i9Fb8pv1FA
lpc_rms=-19.58
pitch_keycenter=G#2
sample=Contrabassoon_trill_wholetone_FF_G#3.opus
</region>

<region>
hikey=G#1
hivel=127
lokey=G1
lovel=1
lpc=uR5xQshB+8IkxZpCyJ4awtCSJ0ICVYPBhx1gQaFPZcENkMlA2h2mwKvFy7+mxrA9D2BCQEwEeMD6J8FAr8eBwHI2AUC3EJm/Gk+TPwR1xD3kwUi/c5wOwFlSAUB2WR4+
lpc_rms=-20.64
pitch_keycenter=G#1
sample=Contrabassoon_trill_wholetone_FF_G#2.opus
</region>

<region>
hikey=F#2
hivel=127
lokey=F2
lovel=1
lpc=OFfAQnGjasN05kdDU+DpwlyxskLVZ+7BsHVbQaJqCsKINc5BaWeJwXMyKUEBHWM/Q+0WwMO9uL/PT2pAKQTUwBGpPUBdbCbAYgUtQdVfFsHka1ZAjYgJwGNrmz90KnG+
lpc_rms=-19.74
pitch_keycenter=F#2
sample=Contrabassoon_trill_wholetone_FF_F#3.opus
</region>

<region>
hikey=F#1
hivel=127
lokey=F1
lovel=1
lpc=QjFWQuNV9cKbXd1Cfo2zwvWJnkLCAlXC8dBBQoElA8JYXTNBZ9kSwQDh3z+BmKJAQV/Rv7j2Jr/g17A/CHWkv53wE0AR49S/Lb/1v2lL6T/nYTO/vgdBP0vbf74jPwa8
lpc_rms=-20.87
pitch_keycenter=F#1
sample=Contrabassoon_trill_wholetone_FF_F#2.opus
</region>

<region>
hikey=E2
hivel=127
lokey=D#2
lovel=1
lpc=C+qPQQr9CcJHNeVBR+CswXceNkG5yuLAcZgJQQQi2sB3RMdAEQZawE6/kT+iyv0+8fVbvuqiJD+gMwu/wU47v8Tqjb1VydA+xR76Pc8NJr/94NE+bOIGvxe+6j6+I6E9
lpc_rms=-18.81
pitch_keycenter=E2
sample=Contrabassoon_trill_wholetone_FF_E3.opus
</region>

<region>
hikey=E1
hivel=127
lokey=D#1
lovel=1
lpc=R7FQQm0r+sIg+/hC07rDwtNSkEJFQ0PCpuY5QgANEsJfbsJBVz6BwZsOpkD9qahAvS4twVWL20BtfAO/qZXov+jijEApafXAYdHpQJPIt8BXk6FA+cxAwK+GmT9On/O+
lpc_rms=-19.72
pitch_keycenter=E1
sample=Contrabassoon_trill_wholetone_FF_E2.opus
</region>

<region>
hikey=D#4
hivel=127
lokey=C#3
lovel=1
lpc=fPrbQcGyX8IVbDZCDNDywbtlVEF7JJK/DN6tP5/6eL8PUoVAuGG/wDEHrUCbk5PArn4AQLYvZ0DKxpLADH/mP+kFOz8/Gh1AaQDtwKH9mEBk0Y7A/IsbQObxfzxEH2o/
lpc_rms=-21.10
pitch_keycenter=D3
sample=Contrabassoon_trill_wholetone_FF_D4.opus
</region>

<region>
hikey=D2
hivel=127
lokey=C#2
lovel=1
lpc=ICHuQTRzfMLeHFFC1tMHwuHPeEGES7/AICB0QTG3YMGhflBBOQ1PwWJIrkD71TzAyHw4QAqwXr7AgOe9yQFZwBRFtkCeBnTAwJsnQH1fHsCd3u8/GdJjwGIqC0AIWfk+
lpc_rms=-18.70
pitch_keycenter=D2
sample=Contrabassoon_trill_wholetone_FF_D3.opus
</region>

<region>
hikey=D1
hivel=127
lokey=C#1
lovel=1
lpc=OgdAQoIX48LEXNpCHVeowmI/ekLOTx/CbdwHQoXxjcFJwSFA9yBwPxxABcGpM0hBVC0DweQ8DUBxA8Q/bP1Rv5MC6b6MS7k/9HGxwIRxx0BhIUbA4LFWPyjjpT74+4S+
lpc_rms=-21.23
pitch_keycenter=D1
sample=Contrabassoon_trill_wholetone_FF_D2.opus
</region>

<region>
hikey=C3
hivel=127
lokey=B2
lovel=1
lpc=RECWQXhIB8JQRLRBMPRxwQp1BkHYlffAMfdJQcQWB8GYMtNAH3eMwHM15D+7X4q+U9YtwKCjZEBDMGm/VtUqvxL+4j4rn4c+K7MbPuyMDMAXIs8/OsjIvsFbTb/9yIQ/
lpc_rms=-23.45
pitch_keycenter=C3
sample=Contrabassoon_trill_wholetone_FF_C4.opus
</region>

<region>
hikey=C2
hivel=127
lokey=B1
lovel=1
lpc=0EoCQk9wiMKOv0pCJxwBwmwZy0F8YpPBb3jHQSi+ocGAN0NBGmcjwXP7jED4/50/KXigwISqz0D4RoLAuRFzP6k6F8DehGdAKhhdPnMKZsDSSzZAlyGEPuIoKcArrdY/
lpc_rms=-19.34
pitch_keycenter=C2
sample=Contrabassoon_trill_wholetone_FF_C3.opus
</region>

<region>
hivel=127
key=C1
lovel=1
lpc=tGZqQg2NCcP4BgRDRE/Rwujpp0K82G/CBhtbQpGaHMJKSq1ByS+gwTDDfkEqZb3Ah1XGQJyZPsFwWw1BN1V5wDkYWEB8zdC/K8EuP0ONV8AFjXVAfmxdwIu0+D/UyGg+
lpc_rms=-17.86
sample=Contrabassoon_trill_wholetone_FF_C2.opus
</region>

<region>
hikey=A#2
hivel=127
lokey=A2
lovel=1
lpc=EU8DQu8PksJCiYVC5MNAwknL6EFRiDnB76UBQduGDcFSHyJBB/eywPfFI0Dk7AHAgm5Zvxb74zzyl0pAd95JwHnXBUCp3CrAuak8QKaz7r+akYU/LOIaviM0879m/NM/
lpc_rms=-19.74
pitch_keycenter=A#2
sample=Contrabassoon_trill_wholetone_FF_A#3.opus
</region>

<region>
hikey=A#1
hivel=127
lokey=A1
lovel=1
lpc=6KrpQUCmfMJCkFxC5QcewvyHzEFIIjfBtd/fQJdX18ClmvtAIIsywO39577IgUu/XEaqP8XoDsBlx2JANgDXvyStvb+kX60/yH4Ovj+5iL4aXAs/PSKOvx8sbr+jDto/
lpc_rms=-20.77
pitch_keycenter=A#1
sample=Contrabassoon_trill_wholetone_FF_A#2.opus
</region>
</group>